# 3ds Max Wavefront OBJ Exporter v0.97b - (c)2007 guruware
# File Created: 22.09.2017 14:11:13

#
# object Arrow_
#

v  -0.5152 0.0000 -5.7422
v  -0.5152 0.0000 -1.1471
v  0.3776 -0.0000 -1.1471
v  0.3776 0.0000 -5.7422
v  -0.0688 0.4464 -5.7422
v  -0.0688 0.4464 -1.1471
v  -0.0688 -0.4464 -1.1471
v  -0.0688 -0.4464 -5.7422
v  0.2469 0.3157 -5.7422
v  0.2469 0.3157 -1.1471
v  -0.3844 -0.3157 -1.1471
v  -0.3844 -0.3157 -5.7422
v  -0.3844 0.3157 -5.7422
v  -0.3844 0.3157 -1.1471
v  0.2469 -0.3157 -1.1471
v  0.2469 -0.3157 -5.7422
v  -0.5152 0.0000 1.1107
v  0.3776 0.0000 1.1107
v  -0.0688 0.4464 1.1107
v  -0.0688 -0.4464 1.1107
v  0.2469 0.3157 1.1107
v  -0.3844 -0.3157 1.1107
v  -0.3844 0.3157 1.1107
v  0.2469 -0.3157 1.1107
# 24 vertices

vn 0.0000 1.0000 -0.0000
vn 0.0000 1.0000 0.0000
vn 1.0000 0.0000 -0.0000
vn 0.7071 -0.7071 -0.0000
vn 0.7071 0.7071 0.0000
vn 0.7071 0.7071 -0.0000
# 6 vertex normals

vt 0.0000 1.0000 0.0000
vt 0.0000 0.5000 0.0000
vt 1.0000 0.5000 0.0000
vt 1.0000 1.0000 0.0000
vt 0.0000 0.0000 0.0000
vt 1.0000 0.0000 0.0000
# 6 texture coords

o Arrow_
g Arrow_
s 1
f 1/1/1 2/2/1 3/3/1 4/4/2 
f 5/1/3 6/2/3 7/3/3 8/4/3 
f 9/1/4 10/2/4 11/3/4 12/4/4 
f 13/1/5 14/2/6 15/3/6 16/4/6 
f 2/2/1 17/5/1 18/6/1 3/3/1 
f 6/2/3 19/5/3 20/6/3 7/3/3 
f 10/2/4 21/5/4 22/6/4 11/3/4 
f 14/2/6 23/5/6 24/6/6 15/3/6 
# 8 polygons

